<?xml version="1.0" standalone="no"?>
<svg width="800" height="800" title="polygons" version="1.1" viewBox="0 0 800 800" xmlns="http://www.w3.org/2000/svg" class="svg-paper"><!----> <g><desc>pwidth:800;pheight:800;pcolor:;seed:10};sf:i+i*7;rf:10*sin(i/2);xf:400;yf:400;qt:56;sd:11;rn:1;minrd:0;maxrd:50;mina:219;maxa:360;cv:curveCardinalClosed;rd:false</desc> <path stroke="#000000" stroke-width="0.4mm" fill="none" d="M400,400C400,400,400,400,400,400C400,400,400,400,400,400C400,400,400,400,400,400C400,400,400,400,400,400C400,400,400,400,400,400C400,400,400,400,400,400C400,400,400,400,400,400C400,400,400,400,400,400C400,400,400,400,400,400C400,400,400,400,400,400C400,400,400,400,400,400"/><path stroke="#000000" stroke-width="0.4mm" fill="none" d="M392.22,398.14C392.22,398.14,392.45,402.64,392.45,402.64C392.45,402.64,395.07,406.30,395.07,406.30C395.07,406.30,399.26,407.97,399.26,407.97C399.26,407.97,403.69,407.10,403.69,407.10C403.69,407.10,406.94,403.98,406.94,403.98C406.94,403.98,407.99,399.60,407.99,399.60C407.99,399.60,406.50,395.34,406.50,395.34C406.50,395.34,402.95,392.56,402.95,392.56C402.95,392.56,398.46,392.15,398.46,392.15C398.46,392.15,394.46,394.23,394.46,394.23C394.46,394.23,392.22,398.14,392.22,398.14"/><path stroke="#000000" stroke-width="0.4mm" fill="none" d="M384.24,397.26C384.24,397.26,385.26,406.22,385.26,406.22C385.26,406.22,390.96,413.20,390.96,413.20C390.96,413.20,399.53,415.99,399.53,415.99C399.53,415.99,408.25,413.71,408.25,413.71C408.25,413.71,414.35,407.07,414.35,407.07C414.35,407.07,415.90,398.19,415.90,398.19C415.90,398.19,412.39,389.88,412.39,389.88C412.39,389.88,404.95,384.79,404.95,384.79C404.95,384.79,395.94,384.52,395.94,384.52C395.94,384.52,388.22,389.17,388.22,389.17C388.22,389.17,384.24,397.26,384.24,397.26"/><path stroke="#000000" stroke-width="0.4mm" fill="none" d="M376.25,396.54C376.25,396.54,378.15,409.93,378.15,409.93C378.15,409.93,386.98,420.16,386.98,420.16C386.98,420.16,399.95,424.00,399.95,424.00C399.95,424.00,412.93,420.22,412.93,420.22C412.93,420.22,421.81,410.01,421.81,410.01C421.81,410.01,423.76,396.63,423.76,396.63C423.76,396.63,418.17,384.32,418.17,384.32C418.17,384.32,406.81,376.99,406.81,376.99C406.81,376.99,393.29,376.96,393.29,376.96C393.29,376.96,381.89,384.25,381.89,384.25C381.89,384.25,376.25,396.54,376.25,396.54"/><path stroke="#000000" stroke-width="0.4mm" fill="none" d="M368.41,394.89C368.41,394.89,370.66,412.78,370.66,412.78C370.66,412.78,382.23,426.61,382.23,426.61C382.23,426.61,399.44,432.00,399.44,432.00C399.44,432.00,416.83,427.22,416.83,427.22C416.83,427.22,428.87,413.80,428.87,413.80C428.87,413.80,431.75,396.00,431.75,396.00C431.75,396.00,424.55,379.47,424.55,379.47C424.55,379.47,409.55,369.46,409.55,369.46C409.55,369.46,391.52,369.14,391.52,369.14C391.52,369.14,376.18,378.63,376.18,378.63C376.18,378.63,368.41,394.89,368.41,394.89"/><path stroke="#000000" stroke-width="0.4mm" fill="none" d="M360.92,391.49C360.92,391.49,362.52,413.97,362.52,413.97C362.52,413.97,376.02,432.02,376.02,432.02C376.02,432.02,397.14,439.90,397.14,439.90C397.14,439.90,419.16,435.11,419.16,435.11C419.16,435.11,435.10,419.18,435.10,419.18C435.10,419.18,439.90,397.16,439.90,397.16C439.90,397.16,432.03,376.04,432.03,376.04C432.03,376.04,413.99,362.53,413.99,362.53C413.99,362.53,391.51,360.91,391.51,360.91C391.51,360.91,371.72,371.71,371.72,371.71C371.72,371.71,360.92,391.49,360.92,391.49"/><path stroke="#000000" stroke-width="0.4mm" fill="none" d="M354.06,386.08C354.06,386.08,353.83,413.12,353.83,413.12C353.83,413.12,368.25,436.00,368.25,436.00C368.25,436.00,392.76,447.45,392.76,447.45C392.76,447.45,419.56,443.83,419.56,443.83C419.56,443.83,440.15,426.30,440.15,426.30C440.15,426.30,448.00,400.42,448.00,400.42C448.00,400.42,440.60,374.40,440.60,374.40C440.60,374.40,420.32,356.51,420.32,356.51C420.32,356.51,393.58,352.43,393.58,352.43C393.58,352.43,368.88,363.45,368.88,363.45C368.88,363.45,354.06,386.08,354.06,386.08"/><path stroke="#000000" stroke-width="0.4mm" fill="none" d="M348.00,379.22C348.00,379.22,345.02,410.63,345.02,410.63C345.02,410.63,359.50,438.67,359.50,438.67C359.50,438.67,386.83,454.43,386.83,454.43C386.83,454.43,418.35,452.91,418.35,452.91C418.35,452.91,444.04,434.59,444.04,434.59C444.04,434.59,455.75,405.29,455.75,405.29C455.75,405.29,449.76,374.31,449.76,374.31C449.76,374.31,427.97,351.48,427.97,351.48C427.97,351.48,397.30,344.07,397.30,344.07C397.30,344.07,367.49,354.41,367.49,354.41C367.49,354.41,348.00,379.22,348.00,379.22"/><path stroke="#000000" stroke-width="0.4mm" fill="none" d="M342.40,372.10C342.40,372.10,336.46,407.67,336.46,407.67C336.46,407.67,350.70,440.81,350.70,440.81C350.70,440.81,380.59,460.98,380.59,460.98C380.59,460.98,416.64,461.80,416.64,461.80C416.64,461.80,447.41,442.99,447.41,442.99C447.41,442.99,463.13,410.54,463.13,410.54C463.13,410.54,458.80,374.74,458.80,374.74C458.80,374.74,435.81,346.96,435.81,346.96C435.81,346.96,401.45,336.02,401.45,336.02C401.45,336.02,366.62,345.39,366.62,345.39C366.62,345.39,342.40,372.10,342.40,372.10"/><path stroke="#000000" stroke-width="0.4mm" fill="none" d="M336.46,366.14C336.46,366.14,328.24,405.87,328.24,405.87C328.24,405.87,342.81,443.74,342.81,443.74C342.81,443.74,375.53,467.72,375.53,467.72C375.53,467.72,416.03,470.19,416.03,470.19C416.03,470.19,451.43,450.39,451.43,450.39C451.43,450.39,470.51,414.58,470.51,414.58C470.51,414.58,467.20,374.15,467.20,374.15C467.20,374.15,442.55,341.92,442.55,341.92C442.55,341.92,404.40,328.13,404.40,328.13C404.40,328.13,364.85,337.16,364.85,337.16C364.85,337.16,336.46,366.14,336.46,366.14"/><path stroke="#000000" stroke-width="0.4mm" fill="none" d="M329.27,362.61C329.27,362.61,320.29,406.79,320.29,406.79C320.29,406.79,336.61,448.80,336.61,448.80C336.61,448.80,373.06,475.33,373.06,475.33C373.06,475.33,418.06,477.93,418.06,477.93C418.06,477.93,457.33,455.80,457.33,455.80C457.33,455.80,478.39,415.95,478.39,415.95C478.39,415.95,474.57,371.03,474.57,371.03C474.57,371.03,447.07,335.31,447.07,335.31C447.07,335.31,404.63,320.13,404.63,320.13C404.63,320.13,360.71,330.31,360.71,330.31C360.71,330.31,329.27,362.61,329.27,362.61"/><path stroke="#000000" stroke-width="0.4mm" fill="none" d="M320.46,362.35C320.46,362.35,312.73,411.33,312.73,411.33C312.73,411.33,332.71,456.71,332.71,456.71C332.71,456.71,374.06,484.09,374.06,484.09C374.06,484.09,423.64,484.77,423.64,484.77C423.64,484.77,465.71,458.53,465.71,458.53C465.71,458.53,486.93,413.71,486.93,413.71C486.93,413.71,480.54,364.54,480.54,364.54C480.54,364.54,448.58,326.63,448.58,326.63C448.58,326.63,401.20,312.01,401.20,312.01C401.20,312.01,353.44,325.33,353.44,325.33C353.44,325.33,320.46,362.35,320.46,362.35"/><path stroke="#000000" stroke-width="0.4mm" fill="none" d="M310.42,365.49C310.42,365.49,305.98,419.40,305.98,419.40C305.98,419.40,331.40,467.15,331.40,467.15C331.40,467.15,378.59,493.58,378.59,493.58C378.59,493.58,432.59,490.30,432.59,490.30C432.59,490.30,476.23,458.35,476.23,458.35C476.23,458.35,495.68,407.87,495.68,407.87C495.68,407.87,484.74,354.90,484.74,354.90C484.74,354.90,446.91,316.24,446.91,316.24C446.91,316.24,394.18,304.18,394.18,304.18C394.18,304.18,343.29,322.54,343.29,322.54C343.29,322.54,310.42,365.49,310.42,365.49"/><path stroke="#000000" stroke-width="0.4mm" fill="none" d="M300.09,371.12C300.09,371.12,300.34,429.72,300.34,429.72C300.34,429.72,332.23,478.89,332.23,478.89C332.23,478.89,385.63,503.00,385.63,503.00C385.63,503.00,443.60,494.42,443.60,494.42C443.60,494.42,487.73,455.86,487.73,455.86C487.73,455.86,504.00,399.56,504.00,399.56C504.00,399.56,487.25,343.40,487.25,343.40C487.25,343.40,442.80,305.22,442.80,305.22C442.80,305.22,384.76,297.12,384.76,297.12C384.76,297.12,331.56,321.69,331.56,321.69C331.56,321.69,300.09,371.12,300.09,371.12"/><path stroke="#000000" stroke-width="0.4mm" fill="none" d="M290.33,377.28C290.33,377.28,295.46,440.18,295.46,440.18C295.46,440.18,333.78,490.32,333.78,490.32C333.78,490.32,393.12,511.79,393.12,511.79C393.12,511.79,454.65,497.76,454.65,497.76C454.65,497.76,498.83,452.70,498.83,452.70C498.83,452.70,511.63,390.90,511.63,390.90C511.63,390.90,488.99,331.99,488.99,331.99C488.99,331.99,438.09,294.68,438.09,294.68C438.09,294.68,375.11,290.80,375.11,290.80C375.11,290.80,320.02,321.60,320.02,321.60C320.02,321.60,290.33,377.28,290.33,377.28"/><path stroke="#000000" stroke-width="0.4mm" fill="none" d="M281.44,381.45C281.44,381.45,290.23,448.49,290.23,448.49C290.23,448.49,333.88,500.14,333.88,500.14C333.88,500.14,398.51,519.99,398.51,519.99C398.51,519.99,463.62,501.75,463.62,501.75C463.62,501.75,508.53,451.20,508.53,451.20C508.53,451.20,518.98,384.40,518.98,384.40C518.98,384.40,491.66,322.55,491.66,322.55C491.66,322.55,435.23,285.29,435.23,285.29C435.23,285.29,367.62,284.45,367.62,284.45C367.62,284.45,310.29,320.30,310.29,320.30C310.29,320.30,281.44,381.45,281.44,381.45"/><path stroke="#000000" stroke-width="0.4mm" fill="none" d="M273.37,381.35C273.37,381.35,283.38,452.77,283.38,452.77C283.38,452.77,330.43,507.44,330.43,507.44C330.43,507.44,399.56,528.00,399.56,528.00C399.56,528.00,468.83,507.92,468.83,507.92C468.83,507.92,516.25,453.57,516.25,453.57C516.25,453.57,526.76,382.22,526.76,382.22C526.76,382.22,497.02,316.51,497.02,316.51C497.02,316.51,436.48,277.31,436.48,277.31C436.48,277.31,364.36,277.06,364.36,277.06C364.36,277.06,303.55,315.85,303.55,315.85C303.55,315.85,273.37,381.35,273.37,381.35"/><path stroke="#000000" stroke-width="0.4mm" fill="none" d="M266.19,375.71C266.19,375.71,274.30,451.91,274.30,451.91C274.30,451.91,322.32,511.63,322.32,511.63C322.32,511.63,395.00,535.91,395.00,535.91C395.00,535.91,469.27,517.04,469.27,517.04C469.27,517.04,521.55,461.00,521.55,461.00C521.55,461.00,535.24,385.61,535.24,385.61C535.24,385.61,505.99,314.78,505.99,314.78C505.99,314.78,443.09,271.01,443.09,271.01C443.09,271.01,366.51,268.19,366.51,268.19C366.51,268.19,300.56,307.22,300.56,307.22C300.56,307.22,266.19,375.71,266.19,375.71"/><path stroke="#000000" stroke-width="0.4mm" fill="none" d="M260.37,364.79C260.37,364.79,263.50,445.87,263.50,445.87C263.50,445.87,309.97,512.39,309.97,512.39C309.97,512.39,385.02,543.22,385.02,543.22C385.02,543.22,464.83,528.58,464.83,528.58C464.83,528.58,524.06,473.12,524.06,473.12C524.06,473.12,543.89,394.44,543.89,394.44C543.89,394.44,518.05,317.53,518.05,317.53C518.05,317.53,454.72,266.80,454.72,266.80C454.72,266.80,374.02,258.36,374.02,258.36C374.02,258.36,301.57,294.89,301.57,294.89C301.57,294.89,260.37,364.79,260.37,364.79"/><path stroke="#000000" stroke-width="0.4mm" fill="none" d="M256.30,350.45C256.30,350.45,252.33,436.01,252.33,436.01C252.33,436.01,295.24,510.13,295.24,510.13C295.24,510.13,371.41,549.29,371.41,549.29C371.41,549.29,456.66,541.05,456.66,541.05C456.66,541.05,523.92,488.02,523.92,488.02C523.92,488.02,551.84,407.06,551.84,407.06C551.84,407.06,531.55,323.85,531.55,323.85C531.55,323.85,469.49,264.82,469.49,264.82C469.49,264.82,385.38,248.71,385.38,248.71C385.38,248.71,305.90,280.63,305.90,280.63C305.90,280.63,256.30,350.45,256.30,350.45"/><path stroke="#000000" stroke-width="0.4mm" fill="none" d="M253.51,335.66C253.51,335.66,241.98,425.07,241.98,425.07C241.98,425.07,280.62,506.52,280.62,506.52C280.62,506.52,357.16,554.16,357.16,554.16C357.16,554.16,447.30,552.85,447.30,552.85C447.30,552.85,522.43,503.01,522.43,503.01C522.43,503.01,558.69,420.47,558.69,420.47C558.69,420.47,544.56,331.43,544.56,331.43C544.56,331.43,484.54,264.16,484.54,264.16C484.54,264.16,397.68,240.02,397.68,240.02C397.68,240.02,311.55,266.67,311.55,266.67C311.55,266.67,253.51,335.66,253.51,335.66"/><path stroke="#000000" stroke-width="0.4mm" fill="none" d="M250.40,323.55C250.40,323.55,232.82,416.56,232.82,416.56C232.82,416.56,268.31,504.32,268.31,504.32C268.31,504.32,345.62,558.95,345.62,558.95C345.62,558.95,440.19,563.12,440.19,563.12C440.19,563.12,522.00,515.50,522.00,515.50C522.00,515.50,565.08,431.21,565.08,431.21C565.08,431.21,555.74,337.01,555.74,337.01C555.74,337.01,496.96,262.81,496.96,262.81C496.96,262.81,407.40,232.16,407.40,232.16C407.40,232.16,315.48,254.81,315.48,254.81C315.48,254.81,250.40,323.55,250.40,323.55"/><path stroke="#000000" stroke-width="0.4mm" fill="none" d="M245.00,316.63C245.00,316.63,224.53,413.67,224.53,413.67C224.53,413.67,259.78,506.37,259.78,506.37C259.78,506.37,339.54,565.29,339.54,565.29C339.54,565.29,438.50,571.74,438.50,571.74C438.50,571.74,525.24,523.66,525.24,523.66C525.24,523.66,572.21,436.32,572.21,436.32C572.21,436.32,564.51,337.45,564.51,337.45C564.51,337.45,504.58,258.44,504.58,258.44C504.58,258.44,411.44,224.37,411.44,224.37C411.44,224.37,314.67,246.07,314.67,246.07C314.67,246.07,245.00,316.63,245.00,316.63"/><path stroke="#000000" stroke-width="0.4mm" fill="none" d="M236.09,316.39C236.09,316.39,216.91,418.27,216.91,418.27C216.91,418.27,255.85,514.36,255.85,514.36C255.85,514.36,340.57,574.14,340.57,574.14C340.57,574.14,444.15,578.63,444.15,578.63C444.15,578.63,533.71,526.40,533.71,526.40C533.71,526.40,580.82,434.05,580.82,434.05C580.82,434.05,570.53,330.88,570.53,330.88C570.53,330.88,506.09,249.66,506.09,249.66C506.09,249.66,407.97,216.17,407.97,216.17C407.97,216.17,307.32,241.05,307.32,241.05C307.32,241.05,236.09,316.39,236.09,316.39"/><path stroke="#000000" stroke-width="0.4mm" fill="none" d="M224.11,323.01C224.11,323.01,210.41,430.33,210.41,430.33C210.41,430.33,256.90,528.01,256.90,528.01C256.90,528.01,348.83,585.06,348.83,585.06C348.83,585.06,457.00,583.34,457.00,583.34C457.00,583.34,547.08,523.42,547.08,523.42C547.08,523.42,590.45,424.31,590.45,424.31C590.45,424.31,573.36,317.49,573.36,317.49C573.36,317.49,501.23,236.86,501.23,236.86C501.23,236.86,396.96,208.02,396.96,208.02C396.96,208.02,293.65,240.14,293.65,240.14C293.65,240.14,224.11,323.01,224.11,323.01"/><path stroke="#000000" stroke-width="0.4mm" fill="none" d="M210.82,335.10C210.82,335.10,205.77,447.68,205.77,447.68C205.77,447.68,262.38,545.12,262.38,545.12C262.38,545.12,362.68,596.49,362.68,596.49C362.68,596.49,474.83,585.47,474.83,585.47C474.83,585.47,563.23,515.57,563.23,515.57C563.23,515.57,599.80,408.98,599.80,408.98C599.80,408.98,572.93,299.53,572.93,299.53C572.93,299.53,491.16,221.99,491.16,221.99C491.16,221.99,380.45,200.96,380.45,200.96C380.45,200.96,275.94,243.12,275.94,243.12C275.94,243.12,210.82,335.10,210.82,335.10"/><path stroke="#000000" stroke-width="0.4mm" fill="none" d="M198.24,349.43C198.24,349.43,202.93,466.54,202.93,466.54C202.93,466.54,270.19,562.52,270.19,562.52C270.19,562.52,378.66,606.90,378.66,606.90C378.66,606.90,493.91,585.60,493.91,585.60C493.91,585.60,579.34,505.36,579.34,505.36C579.34,505.36,607.83,391.68,607.83,391.68C607.83,391.68,570.34,280.64,570.34,280.64C570.34,280.64,478.77,207.49,478.77,207.49C478.77,207.49,362.19,195.47,362.19,195.47C362.19,195.47,257.61,248.38,257.61,248.38C257.61,248.38,198.24,349.43,198.24,349.43"/><path stroke="#000000" stroke-width="0.4mm" fill="none" d="M187.44,361.62C187.44,361.62,200.43,482.63,200.43,482.63C200.43,482.63,276.79,577.41,276.79,577.41C276.79,577.41,392.26,615.86,392.26,615.86C392.26,615.86,510.19,585.78,510.19,585.78C510.19,585.78,593.14,496.71,593.14,496.71C593.14,496.71,614.77,376.94,614.77,376.94C614.77,376.94,568.20,264.49,568.20,264.49C568.20,264.49,468.24,195.06,468.24,195.06C468.24,195.06,346.61,190.70,346.61,190.70C346.61,190.70,241.93,252.79,241.93,252.79C241.93,252.79,187.44,361.62,187.44,361.62"/><path stroke="#000000" stroke-width="0.4mm" fill="none" d="M178.38,367.41C178.38,367.41,195.94,492.40,195.94,492.40C195.94,492.40,278.29,588.05,278.29,588.05C278.29,588.05,399.28,624.00,399.28,624.00C399.28,624.00,520.50,588.83,520.50,588.83C520.50,588.83,603.46,493.71,603.46,493.71C603.46,493.71,621.82,368.84,621.82,368.84C621.82,368.84,569.76,253.86,569.76,253.86C569.76,253.86,463.80,185.28,463.80,185.28C463.80,185.28,337.59,184.87,337.59,184.87C337.59,184.87,231.19,252.77,231.19,252.77C231.19,252.77,178.38,367.41,178.38,367.41"/><path stroke="#000000" stroke-width="0.4mm" fill="none" d="M170.81,364.01C170.81,364.01,187.74,493.64,187.74,493.64C187.74,493.64,272.05,593.53,272.05,593.53C272.05,593.53,397.00,631.98,397.00,631.98C397.00,631.98,522.89,596.78,522.89,596.78C522.89,596.78,609.77,499.10,609.77,499.10C609.77,499.10,630.05,369.96,630.05,369.96C630.05,369.96,577.29,250.36,577.29,250.36C577.29,250.36,468.24,178.26,468.24,178.26C468.24,178.26,337.53,176.57,337.53,176.57C337.53,176.57,226.65,245.81,226.65,245.81C226.65,245.81,170.81,364.01,170.81,364.01"/><path stroke="#000000" stroke-width="0.4mm" fill="none" d="M165.05,351.04C165.05,351.04,175.88,485.84,175.88,485.84C175.88,485.84,257.87,593.38,257.87,593.38C257.87,593.38,384.98,639.53,384.98,639.53C384.98,639.53,516.86,609.63,516.86,609.63C516.86,609.63,611.64,513.17,611.64,513.17C611.64,513.17,639.23,380.78,639.23,380.78C639.23,380.78,590.86,254.49,590.86,254.49C590.86,254.49,481.89,174.40,481.89,174.40C481.89,174.40,346.93,165.94,346.93,165.94C346.93,165.94,228.81,231.79,228.81,231.79C228.81,231.79,165.05,351.04,165.05,351.04"/><path stroke="#000000" stroke-width="0.4mm" fill="none" d="M161.86,330.78C161.86,330.78,162.24,470.52,162.24,470.52C162.24,470.52,238.10,587.87,238.10,587.87C238.10,587.87,365.37,645.57,365.37,645.57C365.37,645.57,503.64,625.31,503.64,625.31C503.64,625.31,608.99,533.51,608.99,533.51C608.99,533.51,648.00,399.33,648.00,399.33C648.00,399.33,608.27,265.36,608.27,265.36C608.27,265.36,502.41,174.13,502.41,174.13C502.41,174.13,364.04,154.62,364.04,154.62C364.04,154.62,237.09,213.02,237.09,213.02C237.09,213.02,161.86,330.78,161.86,330.78"/><path stroke="#000000" stroke-width="0.4mm" fill="none" d="M161.25,307.63C161.25,307.63,149.21,451.37,149.21,451.37C149.21,451.37,216.79,578.80,216.79,578.80C216.79,578.80,342.54,649.47,342.54,649.47C342.54,649.47,486.54,640.93,486.54,640.93C486.54,640.93,603.06,555.90,603.06,555.90C603.06,555.90,655.11,421.37,655.11,421.37C655.11,421.37,626.16,280.06,626.16,280.06C626.16,280.06,525.41,176.82,525.41,176.82C525.41,176.82,384.85,144.45,384.85,144.45C384.85,144.45,249.09,193.21,249.09,193.21C249.09,193.21,161.25,307.63,161.25,307.63"/><path stroke="#000000" stroke-width="0.4mm" fill="none" d="M161.50,286.80C161.50,286.80,138.16,433.71,138.16,433.71C138.16,433.71,197.95,569.92,197.95,569.92C197.95,569.92,321.89,652.18,321.89,652.18C321.89,652.18,470.63,654.38,470.63,654.38C470.63,654.38,596.95,575.81,596.95,575.81C596.95,575.81,660.73,441.42,660.73,441.42C660.73,441.42,641.73,293.88,641.73,293.88C641.73,293.88,545.99,180.04,545.99,180.04C545.99,180.04,403.89,136.03,403.89,136.03C403.89,136.03,260.56,175.83,260.56,175.83C260.56,175.83,161.50,286.80,161.50,286.80"/><path stroke="#000000" stroke-width="0.4mm" fill="none" d="M159.59,272.78C159.59,272.78,128.97,422.95,128.97,422.95C128.97,422.95,184.40,565.84,184.40,565.84C184.40,565.84,308.29,656.07,308.29,656.07C308.29,656.07,461.29,665.00,461.29,665.00C461.29,665.00,594.83,589.80,594.83,589.80C594.83,589.80,666.52,454.34,666.52,454.34C666.52,454.34,653.58,301.62,653.58,301.62C653.58,301.62,560.14,180.14,560.14,180.14C560.14,180.14,415.85,128.46,415.85,128.46C415.85,128.46,266.53,163.00,266.53,163.00C266.53,163.00,159.59,272.78,159.59,272.78"/><path stroke="#000000" stroke-width="0.4mm" fill="none" d="M152.84,268.42C152.84,268.42,120.94,422.93,120.94,422.93C120.94,422.93,177.64,570.16,177.64,570.16C177.64,570.16,304.94,663.37,304.94,663.37C304.94,663.37,462.42,672.95,462.42,672.95C462.42,672.95,600.08,595.88,600.08,595.88C600.08,595.88,674.22,456.61,674.22,456.61C674.22,456.61,661.29,299.37,661.29,299.37C661.29,299.37,565.41,174.08,565.41,174.08C565.41,174.08,417.01,120.52,417.01,120.52C417.01,120.52,263.21,155.69,263.21,155.69C263.21,155.69,152.84,268.42,152.84,268.42"/><path stroke="#000000" stroke-width="0.4mm" fill="none" d="M140.67,274.73C140.67,274.73,114.11,434.82,114.11,434.82C114.11,434.82,178.32,583.86,178.32,583.86C178.32,583.86,312.91,674.52,312.91,674.52C312.91,674.52,475.15,678.02,475.15,678.02C475.15,678.02,613.53,593.26,613.53,593.26C613.53,593.26,684.12,447.13,684.12,447.13C684.12,447.13,664.50,286.04,664.50,286.04C664.50,286.04,560.90,161.14,560.90,161.14C560.90,161.14,406.22,112.07,406.22,112.07C406.22,112.07,249.56,154.41,249.56,154.41C249.56,154.41,140.67,274.73,140.67,274.73"/><path stroke="#000000" stroke-width="0.4mm" fill="none" d="M124.97,290.57C124.97,290.57,109.47,456.63,109.47,456.63C109.47,456.63,186.21,604.71,186.21,604.71C186.21,604.71,330.82,687.80,330.82,687.80C330.82,687.80,497.40,679.52,497.40,679.52C497.40,679.52,633.06,582.48,633.06,582.48C633.06,582.48,694.72,427.52,694.72,427.52C694.72,427.52,662.81,263.81,662.81,263.81C662.81,263.81,547.46,143.35,547.46,143.35C547.46,143.35,385.29,104.37,385.29,104.37C385.29,104.37,227.80,159.25,227.80,159.25C227.80,159.25,124.97,290.57,124.97,290.57"/><path stroke="#000000" stroke-width="0.4mm" fill="none" d="M108.93,312.27C108.93,312.27,107.71,483.56,107.71,483.56C107.71,483.56,199.28,628.32,199.28,628.32C199.28,628.32,354.58,700.59,354.58,700.59C354.58,700.59,524.30,677.43,524.30,677.43C524.30,677.43,654.56,566.18,654.56,566.18C654.56,566.18,703.99,402.18,703.99,402.18C703.99,402.18,656.91,237.48,656.91,237.48C656.91,237.48,528.26,124.38,528.26,124.38C528.26,124.38,358.89,98.79,358.89,98.79C358.89,98.79,202.57,168.83,202.57,168.83C202.57,168.83,108.93,312.27,108.93,312.27"/><path stroke="#000000" stroke-width="0.4mm" fill="none" d="M95.07,333.97C95.07,333.97,107.78,509.32,107.78,509.32C107.78,509.32,213.27,649.95,213.27,649.95C213.27,649.95,378.04,711.23,378.04,711.23C378.04,711.23,549.79,673.69,549.79,673.69C549.79,673.69,673.98,549.26,673.98,549.26C673.98,549.26,711.18,377.44,711.18,377.44C711.18,377.44,649.59,212.78,649.59,212.78C649.59,212.78,508.75,107.57,508.75,107.57C508.75,107.57,333.38,95.19,333.38,95.19C333.38,95.19,179.17,179.60,179.17,179.60C179.17,179.60,95.07,333.97,95.07,333.97"/><path stroke="#000000" stroke-width="0.4mm" fill="none" d="M84.07,349.15C84.07,349.15,106.73,528.03,106.73,528.03C106.73,528.03,222.50,666.26,222.50,666.26C222.50,666.26,394.63,719.95,394.63,719.95C394.63,719.95,568.46,672.07,568.46,672.07C568.46,672.07,688.81,537.80,688.81,537.80C688.81,537.80,717.46,359.78,717.46,359.78C717.46,359.78,645.32,194.53,645.32,194.53C645.32,194.53,495.29,94.52,495.29,94.52C495.29,94.52,315.01,91.49,315.01,91.49C315.01,91.49,161.71,186.42,161.71,186.42C161.71,186.42,84.07,349.15,84.07,349.15"/><path stroke="#000000" stroke-width="0.4mm" fill="none" d="M75.44,352.63C75.44,352.63,101.35,535.62,101.35,535.62C101.35,535.62,222.08,675.55,222.08,675.55C222.08,675.55,399.30,728.00,399.30,728.00C399.30,728.00,576.74,676.31,576.74,676.31C576.74,676.31,698.07,536.89,698.07,536.89C698.07,536.89,724.76,354.02,724.76,354.02C724.76,354.02,648.34,185.74,648.34,185.74C648.34,185.74,493.08,85.48,493.08,85.48C493.08,85.48,308.27,85.09,308.27,85.09C308.27,85.09,152.57,184.68,152.57,184.68C152.57,184.68,75.44,352.63,75.44,352.63"/><path stroke="#000000" stroke-width="0.4mm" fill="none" d="M69.01,342.20C69.01,342.20,90.30,530.32,90.30,530.32C90.30,530.32,209.92,677.07,209.92,677.07C209.92,677.07,389.89,735.85,389.89,735.85C389.89,735.85,573.07,688.00,573.07,688.00C573.07,688.00,701.30,548.71,701.30,548.71C701.30,548.71,733.87,362.21,733.87,362.21C733.87,362.21,660.44,187.71,660.44,187.71C660.44,187.71,504.32,80.60,504.32,80.60C504.32,80.60,315.08,74.91,315.08,74.91C315.08,74.91,152.80,172.43,152.80,172.43C152.80,172.43,69.01,342.20,69.01,342.20"/><path stroke="#000000" stroke-width="0.4mm" fill="none" d="M65.58,319.37C65.58,319.37,75.08,512.97,75.08,512.97C75.08,512.97,187.73,670.70,187.73,670.70C187.73,670.70,367.78,742.49,367.78,742.49C367.78,742.49,558.06,705.54,558.06,705.54C558.06,705.54,698.15,571.58,698.15,571.58C698.15,571.58,743.59,383.15,743.59,383.15C743.59,383.15,679.94,200.07,679.94,200.07C679.94,200.07,527.41,80.46,527.41,80.46C527.41,80.46,334.43,62.31,334.43,62.31C334.43,62.31,162.27,151.37,162.27,151.37C162.27,151.37,65.58,319.37,65.58,319.37"/><path stroke="#000000" stroke-width="0.4mm" fill="none" d="M65.92,289.12C65.92,289.12,59.01,487.34,59.01,487.34C59.01,487.34,160.36,657.83,160.36,657.83C160.36,657.83,337.79,746.46,337.79,746.46C337.79,746.46,534.98,725.09,534.98,725.09C534.98,725.09,689.31,600.51,689.31,600.51C689.31,600.51,751.79,412.27,751.79,412.27C751.79,412.27,702.57,220.13,702.57,220.13C702.57,220.13,557.30,85.10,557.30,85.10C557.30,85.10,362.08,50.05,362.08,50.05C362.08,50.05,178.90,126.10,178.90,126.10C178.90,126.10,65.92,289.12,65.92,289.12"/><path stroke="#000000" stroke-width="0.4mm" fill="none" d="M68.97,258.50C68.97,258.50,45.02,459.93,45.02,459.93C45.02,459.93,133.78,642.33,133.78,642.33C133.78,642.33,307.05,747.79,307.05,747.79C307.05,747.79,509.84,742.83,509.84,742.83C509.84,742.83,677.75,629.03,677.75,629.03C677.75,629.03,757.48,442.51,757.48,442.51C757.48,442.51,723.71,242.49,723.71,242.49C723.71,242.49,587.17,92.48,587.17,92.48C587.17,92.48,391.20,40.11,391.20,40.11C391.20,40.11,198.02,102.00,198.02,102.00C198.02,102.00,68.97,258.50,68.97,258.50"/><path stroke="#000000" stroke-width="0.4mm" fill="none" d="M71.34,234.45C71.34,234.45,34.01,438.42,34.01,438.42C34.01,438.42,112.88,630.19,112.88,630.19C112.88,630.19,282.91,748.87,282.91,748.87C282.91,748.87,490.11,756.80,490.11,756.80C490.11,756.80,668.71,651.44,668.71,651.44C668.71,651.44,761.99,466.25,761.99,466.25C761.99,466.25,740.34,260.03,740.34,260.03C740.34,260.03,610.64,98.25,610.64,98.25C610.64,98.25,414.06,32.27,414.06,32.27C414.06,32.27,213.02,83.04,213.02,83.04C213.02,83.04,71.34,234.45,71.34,234.45"/><path stroke="#000000" stroke-width="0.4mm" fill="none" d="M68.80,222.01C68.80,222.01,25.15,429.33,25.15,429.33C25.15,429.33,100.51,627.33,100.51,627.33C100.51,627.33,270.96,753.16,270.96,753.16C270.96,753.16,482.38,766.87,482.38,766.87C482.38,766.87,667.64,664.09,667.64,664.09C667.64,664.09,767.93,477.47,767.93,477.47C767.93,477.47,751.41,266.25,751.41,266.25C751.41,266.25,623.31,97.50,623.31,97.50C623.31,97.50,424.32,24.79,424.32,24.79C424.32,24.79,217.60,71.20,217.60,71.20C217.60,71.20,68.80,222.01,68.80,222.01"/><path stroke="#000000" stroke-width="0.4mm" fill="none" d="M58.86,223.71C58.86,223.71,17.70,436.13,17.70,436.13C17.70,436.13,97.92,637.08,97.92,637.08C97.92,637.08,274.05,762.76,274.05,762.76C274.05,762.76,490.17,773.26,490.17,773.26C490.17,773.26,677.66,665.26,677.66,665.26C677.66,665.26,776.99,473.04,776.99,473.04C776.99,473.04,756.63,257.63,756.63,257.63C756.63,257.63,623.05,87.42,623.05,87.42C623.05,87.42,418.64,16.45,418.64,16.45C418.64,16.45,208.32,67.26,208.32,67.26C208.32,67.26,58.86,223.71,58.86,223.71"/><path stroke="#000000" stroke-width="0.4mm" fill="none" d="M42.41,239.40C42.41,239.40,12.35,458.22,12.35,458.22C12.35,458.22,105.36,658.56,105.36,658.56C105.36,658.56,291.92,776.81,291.92,776.81C291.92,776.81,512.79,775.42,512.79,775.42C512.79,775.42,697.86,654.84,697.86,654.84C697.86,654.84,788.35,453.35,788.35,453.35C788.35,453.35,755.55,234.93,755.55,234.93C755.55,234.93,609.86,68.91,609.86,68.91C609.86,68.91,397.54,8.01,397.54,8.01C397.54,8.01,186.01,71.56,186.01,71.56C186.01,71.56,42.41,239.40,42.41,239.40"/><path stroke="#000000" stroke-width="0.4mm" fill="none" d="M23.17,265.84C23.17,265.84,10.46,490.87,10.46,490.87C10.46,490.87,121.43,687.05,121.43,687.05C121.43,687.05,320.84,792.09,320.84,792.09C320.84,792.09,545.38,772.64,545.38,772.64C545.38,772.64,723.77,634.89,723.77,634.89C723.77,634.89,799.36,422.56,799.36,422.56C799.36,422.56,748.16,203.06,748.16,203.06C748.16,203.06,586.42,46.10,586.42,46.10C586.42,46.10,365.49,1.49,365.49,1.49C365.49,1.49,155.52,83.41,155.52,83.41C155.52,83.41,23.17,265.84,23.17,265.84"/><path stroke="#000000" stroke-width="0.4mm" fill="none" d="M5.32,296.59C5.32,296.59,12.07,526.38,12.07,526.38C12.07,526.38,141.98,716.05,141.98,716.05C141.98,716.05,353.81,805.38,353.81,805.38C353.81,805.38,580.31,766.00,580.31,766.00C580.31,766.00,749.56,610.41,749.56,610.41C749.56,610.41,807.82,388.03,807.82,388.03C807.82,388.03,736.61,169.44,736.61,169.44C736.61,169.44,558.53,24.06,558.53,24.06C558.53,24.06,330.11,-1.97,330.11,-1.97C330.11,-1.97,123.88,99.63,123.88,99.63C123.88,99.63,5.32,296.59,5.32,296.59"/><path stroke="#000000" stroke-width="0.4mm" fill="none" d="M-8.84,323.14C-8.84,323.14,14.51,556.38,14.51,556.38C14.51,556.38,160.25,739.96,160.25,739.96C160.25,739.96,382.11,815.61,382.11,815.61C382.11,815.61,609.64,759.31,609.64,759.31C609.64,759.31,770.62,588.93,770.62,588.93C770.62,588.93,813.93,358.56,813.93,358.56C813.93,358.56,725.82,141.35,725.82,141.35C725.82,141.35,534.26,6.26,534.26,6.26C534.26,6.26,300.08,-3.82,300.08,-3.82C300.08,-3.82,97.62,114.31,97.62,114.31C97.62,114.31,-8.84,323.14,-8.84,323.14"/><path stroke="#000000" stroke-width="0.4mm" fill="none" d="M-19.37,337.48C-19.37,337.48,13.41,574.13,13.41,574.13C13.41,574.13,168.92,755.50,168.92,755.50C168.92,755.50,397.80,823.99,397.80,823.99C397.80,823.99,627.38,757.88,627.38,757.88C627.38,757.88,784.76,578.14,784.76,578.14C784.76,578.14,819.99,341.84,819.99,341.84C819.99,341.84,721.87,124.01,721.87,124.01C721.87,124.01,521.56,-6.20,521.56,-6.20C521.56,-6.20,282.66,-7.44,282.66,-7.44C282.66,-7.44,81.01,120.68,81.01,120.68C81.01,120.68,-19.37,337.48,-19.37,337.48"/><path stroke="#000000" stroke-width="0.4mm" fill="none" d="M-27.02,334.59C-27.02,334.59,5.40,575.84,5.40,575.84C5.40,575.84,163.11,761.26,163.11,761.26C163.11,761.26,396.03,831.98,396.03,831.98C396.03,831.98,630.20,765.55,630.20,765.55C630.20,765.55,791.29,583.07,791.29,583.07C791.29,583.07,828.15,342.46,828.15,342.46C828.15,342.46,729.07,120.12,729.07,120.12C729.07,120.12,525.52,-13.36,525.52,-13.36C525.52,-13.36,282.11,-15.60,282.11,-15.60C282.11,-15.60,76.13,114.11,76.13,114.11C76.13,114.11,-27.02,334.59,-27.02,334.59"/><path stroke="#000000" stroke-width="0.4mm" fill="none" d="M-31.50,313.93C-31.50,313.93,-9.53,560.88,-9.53,560.88C-9.53,560.88,142.46,756.75,142.46,756.75C142.46,756.75,376.22,839.36,376.22,839.36C376.22,839.36,617.53,782.47,617.53,782.47C617.53,782.47,789.77,604.15,789.77,604.15C789.77,604.15,838.27,361.01,838.27,361.01C838.27,361.01,747.62,130.26,747.62,130.26C747.62,130.26,546.60,-14.86,546.60,-14.86C546.60,-14.86,299.04,-28.26,299.04,-28.26C299.04,-28.26,83.53,94.31,83.53,94.31C83.53,94.31,-31.50,313.93,-31.50,313.93"/></g></svg>